HIERARCHY
ROOT hip
{
	OFFSET 0.000000 0.000000 0.000000
	CHANNELS 6 Xposition Yposition Zposition Xrotation Zrotation Yrotation 
	JOINT abdomen
	{
		OFFSET 0.000000 3.422050 0.000000
		CHANNELS 3 Xrotation Zrotation Yrotation 
		JOINT chest
		{
			OFFSET 0.000000 8.486693 -0.684411
			CHANNELS 3 Xrotation Zrotation Yrotation 
			JOINT neck
			{
				OFFSET 0.000000 10.266162 -0.273764
				CHANNELS 3 Xrotation Zrotation Yrotation 
				JOINT head
				{
					OFFSET 0.000000 3.148285 0.000000
					CHANNELS 3 Xrotation Zrotation Yrotation 
					End Site
					{
						OFFSET 0.000000 3.148289 0.000000
					}
				}
			}
			JOINT lCollar
			{
				OFFSET 3.422053 6.707223 -0.821293
				CHANNELS 3 Yrotation Zrotation Xrotation 
				JOINT lShldr
				{
					OFFSET 3.285171 0.000000 0.000000
					CHANNELS 3 Zrotation Yrotation Xrotation 
					JOINT lForeArm
					{
						OFFSET 10.129278 0.000000 0.000000
						CHANNELS 3 Yrotation Zrotation Xrotation 
						JOINT lHand
						{
							OFFSET 8.486692 0.000000 0.000000
							CHANNELS 3 Zrotation Yrotation Xrotation 
							End Site
							{
								OFFSET 4.106464 0.000000 0.000000
							}
						}
					}
				}
			}
			JOINT rCollar
			{
				OFFSET -3.558935 6.707223 -0.821293
				CHANNELS 3 Yrotation Zrotation Xrotation 
				JOINT rShldr
				{
					OFFSET -3.148289 0.000000 0.000000
					CHANNELS 3 Zrotation Yrotation Xrotation 
					JOINT rForeArm
					{
						OFFSET -10.266159 0.000000 0.000000
						CHANNELS 3 Yrotation Zrotation Xrotation 
						JOINT rHand
						{
							OFFSET -8.349810 0.000000 0.000000
							CHANNELS 3 Zrotation Yrotation Xrotation 
							End Site
							{
								OFFSET -4.106464 0.000000 0.000000
							}
						}
					}
				}
			}
		}
	}
	JOINT lThigh
	{
		OFFSET 5.338403 -1.642589 1.368821
		CHANNELS 3 Xrotation Zrotation Yrotation 
		JOINT lShin
		{
			OFFSET -2.053232 -20.121670 0.000000
			CHANNELS 3 Xrotation Zrotation Yrotation 
			JOINT lFoot
			{
				OFFSET 0.000000 -19.300380 -1.231939
				CHANNELS 3 Xrotation Yrotation Zrotation 
				End Site
				{
					OFFSET 0.000000 -2.463878 4.653993
				}
			}
		}
	}
	JOINT rThigh
	{
		OFFSET -5.338403 -1.642589 1.368821
		CHANNELS 3 Xrotation Zrotation Yrotation 
		JOINT rShin
		{
			OFFSET 2.053232 -20.121670 0.000000
			CHANNELS 3 Xrotation Zrotation Yrotation 
			JOINT rFoot
			{
				OFFSET 0.000000 -19.300380 -1.231939
				CHANNELS 3 Xrotation Yrotation Zrotation 
				End Site
				{
					OFFSET 0.000000 -2.463878 4.653993
				}
			}
		}
	}
}
MOTION
Frames: 11
Frame Time: 0.033264
0.000000 43.528500 0.000000 0.000000 0.000000 0.000000 0.000000 0.000000 0.000000 0.000000 0.000000 0.000000 0.000000 0.000000 0.000000 0.000000 0.000000 0.000000 0.000000 0.000000 0.000000 0.000000 0.000000 0.000000 0.000000 0.000000 0.000000 0.000000 0.000000 0.000000 0.000000 0.000000 0.000000 0.000000 0.000000 0.000000 0.000000 0.000000 0.000000 0.000000 0.000000 0.000000 0.000000 0.000000 0.000000 0.000000 0.000000 0.000000 0.000000 0.000000 0.000000 0.000000 0.000000 0.000000 0.000000 0.000000 0.000000 0.000000 0.000000 0.000000 
19.995884 43.687695 11.837742 10.999558 0.000000 0.000000 10.663015 -0.538587 -0.118754 -10.338512 -0.667720 -0.801663 0.463372 0.000000 0.000000 0.305993 0.000000 0.000000 15.833722 -16.281340 17.239979 -63.650822 4.056340 -0.877294 6.934142 -6.948929 2.655740 -4.857411 -6.705474 3.884487 -17.938841 21.900932 16.500267 58.723175 -4.241595 -0.425867 -6.696889 4.610486 2.641825 5.977349 5.597522 3.730672 -18.620956 6.198309 -8.117605 11.044849 -12.539416 1.032579 -2.915948 18.782352 -6.938709 -10.701796 -2.121671 -10.441650 -0.821005 5.126282 -0.080511 -1.020531 -18.381645 7.494636 
19.995884 43.687695 11.815046 12.051009 0.000000 0.000000 10.663015 -0.538587 -0.118754 -11.499619 -0.667816 -0.801501 0.923285 0.000000 0.000000 0.432176 -0.055050 0.010963 16.369118 -16.459051 17.838877 -63.223167 4.089878 -0.834948 6.915578 -6.756464 2.653863 -5.086119 -7.087106 4.102898 -18.541756 22.068047 17.172201 58.249767 -4.259437 -0.372963 -6.635510 4.421314 2.635403 6.241048 5.970720 3.907231 -19.857988 6.247648 -8.072279 11.254630 -12.666292 0.992112 -2.915948 18.782354 -6.938710 -11.805835 -2.108838 -10.511894 -0.821005 5.126282 -0.080511 -1.020531 -18.381645 7.494636 
19.995884 43.687695 11.792351 13.103888 0.000000 0.000000 10.663017 -0.538588 -0.118754 -12.662658 -0.667909 -0.801338 1.383745 0.000000 0.000000 0.558382 -0.110138 0.021808 16.907236 -16.631475 18.440395 -62.795372 4.123106 -0.792340 6.897025 -6.563990 2.652049 -5.316553 -7.467974 4.323093 -19.147850 22.228683 17.847227 57.776207 -4.276848 -0.319897 -6.574165 4.232126 2.629185 6.506162 6.343206 4.085690 -21.097448 6.298044 -8.027945 11.464621 -12.793029 0.951146 -2.915948 18.782352 -6.938709 -12.911548 -2.097343 -10.582481 -0.821005 5.126282 -0.080511 -1.020531 -18.381645 7.494637 
19.995884 43.687695 11.769655 14.158015 0.000000 0.000000 10.663015 -0.538588 -0.118754 -13.827382 -0.667999 -0.801172 1.844736 0.000000 0.000000 0.684610 -0.165264 0.032534 17.447983 -16.798552 19.044432 -62.367477 4.156024 -0.749475 6.878486 -6.371508 2.650299 -5.548726 -7.848055 4.545085 -19.756975 22.382765 18.525200 57.302509 -4.293825 -0.266675 -6.512853 4.042924 2.623171 6.772707 6.714959 4.266060 -22.339066 6.349468 -7.984645 11.674822 -12.919625 0.909680 -2.915948 18.782354 -6.938710 -14.018728 -2.087198 -10.653368 -0.821005 5.126282 -0.080511 -1.020531 -18.381645 7.494636 
19.995884 43.687695 11.746959 15.213222 0.000000 0.000000 10.663015 -0.538587 -0.118754 -14.993556 -0.668085 -0.801004 2.306246 0.000000 0.000000 0.810859 -0.220427 0.043141 17.991257 -16.960222 19.650890 -61.939449 4.188627 -0.706356 6.859959 -6.179018 2.648612 -5.782655 -8.227317 4.768887 -20.369007 22.530235 19.205986 56.828686 -4.310366 -0.213302 -6.451571 3.853708 2.617362 7.040697 7.085951 4.448352 -23.582554 6.401890 -7.942414 11.885238 -13.046080 0.867715 -2.915947 18.782352 -6.938709 -15.127177 -2.078416 -10.724523 -0.821005 5.126281 -0.080511 -1.020531 -18.381641 7.494635 
19.995884 43.687695 11.724263 16.269327 0.000000 0.000000 10.663015 -0.538587 -0.118754 -16.160948 -0.668168 -0.800835 2.768260 0.000000 0.000000 0.937131 -0.275627 0.053629 18.536964 -17.116432 20.259678 -61.511326 4.220913 -0.662986 6.841443 -5.986524 2.646989 -6.018350 -8.605736 4.994514 -20.983786 22.671013 19.889437 56.354767 -4.326469 -0.159783 -6.390321 3.664481 2.611756 7.310142 7.456154 4.632573 -24.827610 6.455272 -7.901281 12.095864 -13.172389 0.825249 -2.915948 18.782352 -6.938709 -16.236673 -2.071004 -10.795897 -0.821005 5.126282 -0.080511 -1.020532 -18.381645 7.494635 
19.995884 43.687695 11.701568 17.326147 0.000000 0.000000 10.663015 -0.538587 -0.118754 -17.329309 -0.668248 -0.800663 3.230763 0.000000 0.000000 1.063425 -0.330865 0.063998 19.084997 -17.267124 20.870686 -61.083099 4.252877 -0.619368 6.822938 -5.794022 2.645427 -6.255826 -8.983283 5.221975 -21.601166 22.805044 20.575401 55.880745 -4.342132 -0.106124 -6.329099 3.475243 2.606354 7.581059 7.825541 4.818736 -26.073952 6.509583 -7.861285 12.306704 -13.298550 0.782283 -2.915948 18.782352 -6.938709 -17.347019 -2.064971 -10.867456 -0.821005 5.126282 -0.080511 -1.020531 -18.381645 7.494636 
19.995884 43.687695 11.678872 18.383507 0.000000 0.000000 10.663015 -0.538588 -0.118754 -18.498398 -0.668324 -0.800490 3.693742 0.000000 0.000000 1.189740 -0.386138 0.074248 19.635248 -17.412247 21.483805 -60.654793 4.284517 -0.575506 6.804444 -5.601517 2.643929 -6.495098 -9.359933 5.451289 -22.220995 22.932276 21.263729 55.406654 -4.357353 -0.052330 -6.267909 3.285997 2.601156 7.853463 8.194091 5.006852 -27.321293 6.564785 -7.822456 12.517757 -13.424560 0.738817 -2.915948 18.782352 -6.938709 -18.457998 -2.060322 -10.939158 -0.821005 5.126282 -0.080511 -1.020531 -18.381645 7.494636 
19.995884 43.687695 11.656177 19.441233 0.000000 0.000000 10.663015 -0.538587 -0.118754 -19.667976 -0.668396 -0.800315 4.157182 0.000000 0.000000 1.316076 -0.441447 0.084379 20.187614 -17.551752 22.098934 -60.226444 4.315834 -0.531404 6.785963 -5.409012 2.642495 -6.736177 -9.735655 5.682465 -22.843107 23.052635 21.954248 54.932507 -4.372130 0.001592 -6.206745 3.096742 2.596160 8.127365 8.561773 5.196928 -28.569328 6.620841 -7.784822 12.729022 -13.550413 0.694849 -2.915947 18.782352 -6.938710 -19.569403 -2.057063 -11.010967 -0.821005 5.126282 -0.080511 -1.020531 -18.381645 7.494636 
19.995884 43.687695 11.633480 20.499134 0.000000 0.000000 10.663016 -0.538587 -0.118754 -20.837801 -0.668466 -0.800139 4.621068 0.000000 0.000000 1.442434 -0.496791 0.094390 20.741976 -17.685593 22.715954 -59.798027 4.346820 -0.487066 6.767491 -5.216502 2.641122 -6.979081 -10.110427 5.915519 -23.467346 23.166090 22.646814 54.458317 -4.386464 0.055639 -6.145607 2.907481 2.591368 8.402781 8.928562 5.388974 -29.817776 6.677713 -7.748417 12.940504 -13.676111 0.650381 -2.915948 18.782352 -6.938709 -20.681019 -2.055196 -11.082837 -0.821005 5.126282 -0.080511 -1.020531 -18.381645 7.494637 
